<?xml version="1.0" encoding="UTF-8"?>
<svg id="a" data-name="Layer 1" xmlns="http://www.w3.org/2000/svg" viewBox="0 0 1024 256">
  <defs>
    <style>
      .b {
        fill: #212dff;
      }
    </style>
  </defs>
  <polyline class="b" points="138 239.45 137.18 18.39 185.72 18.39 211.88 170.35 237.49 18.39 288.19 18.39 289 222.66 255.02 225.9 252.87 75.97 229.67 226.98 195.16 231.83 167.06 75.43 166.58 236.42"/>
  <path class="b" d="M393.09,18.39h-50.16l-39.5,201.98,34.18-3.67,5.32-36.11,47.73-2.02,3.24,34.79,35.6-1.62L393.09,18.39Zm-44.9,136.72l16.58-102.34,20.63,102.34h-37.21Z"/>
  <polygon class="b" points="503.11 133.27 474.39 210.93 439.61 210.93 481.67 111.83 441.22 18.39 479.25 18.39 505.94 91.2 535.88 18.39 567.83 18.39 529.81 111.43 568.91 211.62 533.85 210.93 503.11 133.27"/>
  <polygon class="b" points="590.48 212.96 590.48 18.39 624.46 18.39 624.46 187.88 684.73 191.11 684.73 219.02 590.48 212.96"/>
  <polyline class="b" points="701.31 18.39 701.31 18.39 701.31 220.64 735.7 222.66 735.7 18.39"/>
  <polyline class="b" points="756.6 224.28 788.3 227.17 818.08 145 850.44 237.22 885.49 240.46 843.97 126.39 880.91 18.39 849.63 18.39 821.04 94.3 795.97 18.39 758.75 18.39 797.36 119.52"/>
</svg>