<?xml version="1.0" encoding="utf-8"?>
<!-- Generator: Adobe Illustrator 26.1.0, SVG Export Plug-In . SVG Version: 6.00 Build 0)  -->
<svg version="1.1" id="Layer_1" xmlns="http://www.w3.org/2000/svg" xmlns:xlink="http://www.w3.org/1999/xlink" x="0px" y="0px"
	 viewBox="0 0 2048 512" style="enable-background:new 0 0 2048 512;" xml:space="preserve">
<style type="text/css">
	.st0{fill:#E40421;}
</style>
<path class="st0" d="M0,31h115.1l81.5,335.5h0.4L278.5,31h114.9v450h-75V159.5l-78,321.5H153L75.1,159.5V481H0V31z"/>
<path class="st0" d="M540.6,31h94.1l109.5,450h-77l-24.5-100H533.1l-24.5,100h-77L540.6,31z M587.5,153.5L549.4,312H626l-38.1-158.5
	H587.5z"/>
<path class="st0" d="M768.5,31h84L919,168.5L985.5,31h84L960.5,256l109.1,225h-84.1L919,343.5L852.5,481h-84l109.1-225L768.5,31z"/>
<path class="st0" d="M1106.5,31h75v381h150v69h-225V31z"/>
<path class="st0" d="M1406.4,31h75v450h-75L1406.4,31L1406.4,31z"/>
<path class="st0" d="M1543.4,31h84l66.5,137.5L1760.3,31h84l-108.9,225l108.9,225h-84l-66.5-137.5L1627.3,481h-84l108.9-225
	L1543.4,31z"/>
</svg>
