<svg id="Layer_1" data-name="Layer 1" xmlns="http://www.w3.org/2000/svg" viewBox="0 0 2048 512"><defs><style>.cls-1{fill:#e40421;}</style></defs><path class="cls-1" d="M395.07,101.71h78.86l55.89,230.06h.34l55.89-230.06H664.9V410.28H613.47V189.83L560,410.28H500L446.5,189.83V410.28H395.07Z"/><path class="cls-1" d="M765.7,101.71h64.46l75.08,308.57h-52.8l-16.8-68.57H760.56l-16.8,68.57H691Zm32.23,84L771.87,294.4h52.46L798.27,185.71Z"/><path class="cls-1" d="M922,101.71h57.6l45.6,94.29,45.6-94.29h57.6L1053.69,256l74.75,154.28h-57.6L1025.24,316l-45.6,94.28H922L996.78,256Z"/><path class="cls-1" d="M1153.8,101.71h51.43V363h102.86v47.31H1153.8Z"/><path class="cls-1" d="M1359.52,101.71h51.42V410.28h-51.42Z"/><path class="cls-1" d="M1453.46,101.71h57.6l45.6,94.29,45.6-94.29h57.6L1585.12,256l74.74,154.28h-57.6L1556.66,316l-45.6,94.28h-57.6L1528.2,256Z"/></svg>