<?xml version="1.0" encoding="utf-8"?>
<!-- Generator: Adobe Illustrator 26.1.0, SVG Export Plug-In . SVG Version: 6.00 Build 0)  -->
<svg version="1.1" id="Layer_1" xmlns="http://www.w3.org/2000/svg" xmlns:xlink="http://www.w3.org/1999/xlink" x="0px" y="0px"
	 viewBox="0 0 2048 512" style="enable-background:new 0 0 2048 512;" xml:space="preserve">
<style type="text/css">
	.st0{fill:#E40421;}
</style>
<path class="st0" d="M0,6.2h127.8l90.5,372.6h0.5L309.3,6.2h127.6v499.7h-83.2v-357l-86.6,357h-97.2l-86.5-357v357H0V6.2z"/>
<path class="st0" d="M600.2,6.2h104.4l121.6,499.7h-85.5l-27.2-111.1H592l-27.2,111.1h-85.5L600.2,6.2z M652.4,142.2l-42.3,176h85
	l-42.3-176H652.4z"/>
<path class="st0" d="M853.3,6.2h93.3l73.8,152.7l73.8-152.7h93.3l-121,249.8l121.1,249.8h-93.4l-73.8-152.7l-73.8,152.7h-93.3
	L974.5,256L853.3,6.2z"/>
<path class="st0" d="M1228.7,6.2h83.2v423.1h166.6v76.6h-249.8V6.2z"/>
<path class="st0" d="M1561.7,6.2h83.2v499.7h-83.2L1561.7,6.2L1561.7,6.2z"/>
<path class="st0" d="M1713.8,6.2h93.3l73.8,152.7l73.8-152.7h93.3L1927,256l121,249.8h-93.3l-73.8-152.7l-73.8,152.7h-93.3
	l121-249.8L1713.8,6.2z"/>
</svg>
