<?xml version="1.0" encoding="utf-8"?>
<!-- Generator: Adobe Illustrator 26.1.0, SVG Export Plug-In . SVG Version: 6.00 Build 0)  -->
<svg version="1.1" id="Layer_1" xmlns="http://www.w3.org/2000/svg" xmlns:xlink="http://www.w3.org/1999/xlink" x="0px" y="0px"
	 viewBox="0 0 2048 512" style="enable-background:new 0 0 2048 512;" xml:space="preserve">
<style type="text/css">
	.st0{fill:#E40421;}
</style>
<path class="st0" d="M0,56h102.3l72.5,298.3h0.4L247.6,56h102.1v400h-66.6V170.2L213.7,456H136L66.8,170.2V456H0V56z"/>
<path class="st0" d="M480.5,56h83.6l97.3,400H593l-21.8-88.9h-97.3L452.1,456h-68.4L480.5,56z M522.2,164.9l-33.8,140.9h68
	l-33.8-140.9H522.2z"/>
<path class="st0" d="M683.1,56h74.7l59.1,122.2L876,56h74.7l-96.8,200l97,200H876l-59.1-122.2L757.7,456h-74.7l97-200L683.1,56z"/>
<path class="st0" d="M983.5,56h66.6v338.7h133.4V456h-200V56z"/>
<path class="st0" d="M1250.2,56h66.6v400h-66.6V56L1250.2,56z"/>
<path class="st0" d="M1371.9,56h74.7l59.1,122.2L1564.7,56h74.7l-96.8,200l96.8,200h-74.7l-59.1-122.2L1446.5,456h-74.7l96.8-200
	L1371.9,56z"/>
</svg>
