<?xml version="1.0" encoding="utf-8"?>
<!-- Generator: Adobe Illustrator 26.1.0, SVG Export Plug-In . SVG Version: 6.00 Build 0)  -->
<svg version="1.1" id="Layer_1" xmlns="http://www.w3.org/2000/svg" xmlns:xlink="http://www.w3.org/1999/xlink" x="0px" y="0px"
	 viewBox="0 0 2048 512" style="enable-background:new 0 0 2048 512;" xml:space="preserve">
<style type="text/css">
	.st0{fill:#E40421;}
</style>
<path class="st0" d="M0,81h89.5l63.4,261h0.3l63.4-261H306v350h-58.3V180.9L187,431h-68L58.4,180.9V431H0V81z"/>
<path class="st0" d="M420.4,81h73.2l85.2,350h-59.9l-19.1-77.8h-85.2L395.6,431h-59.9L420.4,81z M457,176.3l-29.6,123.3h59.5
	l-29.6-123.3H457z"/>
<path class="st0" d="M597.7,81H663l51.7,107l51.7-107h65.3l-84.7,175l84.8,175h-65.4l-51.7-107L663,431h-65.3l84.8-175L597.7,81z"/>
<path class="st0" d="M860.6,81h58.3v296.4h116.7V431h-175V81z"/>
<path class="st0" d="M1093.9,81h58.3v350h-58.3V81L1093.9,81z"/>
<path class="st0" d="M1200.4,81h65.3l51.7,107l51.7-107h65.3l-84.7,175l84.7,175h-65.3l-51.7-107l-51.7,107h-65.3l84.7-175
	L1200.4,81z"/>
</svg>
